<?xml version="1.0" encoding="UTF-8"?>
<svg version="1.1" viewBox="0 0 1112 1296" width="1280" height="1280" xmlns="http://www.w3.org/2000/svg">
<path transform="translate(599,148)" d="m0 0 3 1v922l23-13 21-12 26-15 29-17 26-15 24-14 25-14 24-14 22-13 1-4v-287l-26-15-49-28-26-15-29-17-26-15-8-6v-65l5 1 13 8 25 14 15 9 26 15 23 13 52 30 48 28 15 9 2 2v354l-4 4-24 14-28 16-27 16-26 15-23 13-24 14-25 14-27 16-70 40-26 15-21 12-12 7h-2l-1-922-25 14-17 10-28 16-17 10-26 15-24 14-25 14-24 14-26 15-7 4h-2v634l-2 1-46-26-9-6-2-2v-632l4-4 25-14 72-42 19-11 28-16 23-13 53-31 26-15 28-16 23-13 24-14z" fill="#FEFEFE"/>
</svg>
